# xmcd
#
# Track frame offsets:
#	150
#	9295
#	22724
#	37355
#	50791
#	63228
#	76448
#	98392
#	111314
#	131544
#	144012
#	159346
#	171700
#	182350
#	200673
#	211595
#	224744
#	243082
#	256217
#	268327
#
# Disc length: 3754
#
# Revision: 2
# Processed by: cddbd v1.5.1PL0 Copyright (c) Steve Scherf et al.
# Submitted via: dBpowerAMP V4.0
# Normalized: r0:TDELIM( - ),TSWAP
#
DISCID=150ea814
DTITLE=Various Artist - Latte
DYEAR=1900
DGENRE=Collection
TTITLE0=The Drifters - Up on the Roof
TTITLE1=Dobie Gray - The IN Crowd
TTITLE2=Doris Day and Les Brown - Sentimental Journey
TTITLE3=Tom Jones - Unchained Melody
TTITLE4=Lulu - Oh me, Oh my
TTITLE5=Percy Sledge - When a Man Loves a Woman
TTITLE6=Carole King - Back to California
TTITLE7=Trevor Dawe - Last Date
TTITLE8=Neil Sedaka - New York City Blues
TTITLE9=Frank Sinatra - Come Fly With Me
TTITLE10=Petula Clark - This is my Song
TTITLE11=Joe Dolan - Make me an Island
TTITLE12=Bobby Darin - If I Were A Carpenter
TTITLE13=Goergie Fame - Yeh Yeh
TTITLE14=Al Martino - Somewhere My Love
TTITLE15=Kenny Ball and his Jazzmen - Midnight in Moscow
TTITLE16=Brook Benton - Rainy Night in Georgia
TTITLE17=Guy Mitchell - My Shoes Keep Walking Back To You
TTITLE18=Dave Berry - The Crying Game
TTITLE19=Benny Goodman - A String of Pearls
EXTD=
EXTT0=
EXTT1=
EXTT2=
EXTT3=
EXTT4=
EXTT5=
EXTT6=
EXTT7=
EXTT8=
EXTT9=
EXTT10=
EXTT11=
EXTT12=
EXTT13=
EXTT14=
EXTT15=
EXTT16=
EXTT17=
EXTT18=
EXTT19=
PLAYORDER=
